<svg width="44" height="41" viewBox="0 0 44 41" fill="none" xmlns="http://www.w3.org/2000/svg">
<g id="Icon">
<path id="Icon_2" d="M15.3598 0.5H32.1598C38.5598 0.5 43.7598 5.7 43.7598 12.1V28.9C43.7598 31.9765 42.5376 34.927 40.3622 37.1024C38.1868 39.2779 35.2363 40.5 32.1598 40.5H15.3598C8.95977 40.5 3.75977 35.3 3.75977 28.9V12.1C3.75977 9.02349 4.98191 6.07298 7.15733 3.89756C9.33275 1.72214 12.2833 0.5 15.3598 0.5ZM14.9598 4.5C13.0502 4.5 11.11 5.14974 9.75977 6.5C8.4095 7.85026 7.75977 9.79044 7.75977 11.7V29.3C7.75977 33.28 10.9798 36.5 14.9598 36.5H32.5598C34.4693 36.5 36.3007 35.7414 37.6509 34.3912C39.0012 33.0409 39.7598 31.2096 39.7598 29.3V11.7C39.7598 7.72 36.5398 4.5 32.5598 4.5H14.9598ZM34.2598 7.5C34.9228 7.5 35.5587 7.76339 36.0275 8.23223C36.4964 8.70107 36.7598 9.33696 36.7598 10C36.7598 10.663 36.4964 11.2989 36.0275 11.7678C35.5587 12.2366 34.9228 12.5 34.2598 12.5C33.5967 12.5 32.9608 12.2366 32.492 11.7678C32.0232 11.2989 31.7598 10.663 31.7598 10C31.7598 9.33696 32.0232 8.70107 32.492 8.23223C32.9608 7.76339 33.5967 7.5 34.2598 7.5ZM23.7598 10.5C26.4119 10.5 28.9555 11.5536 30.8308 13.4289C32.7062 15.3043 33.7598 17.8478 33.7598 20.5C33.7598 23.1522 32.7062 25.6957 30.8308 27.5711C28.9555 29.4464 26.4119 30.5 23.7598 30.5C21.1076 30.5 18.5641 29.4464 16.6887 27.5711C14.8133 25.6957 13.7598 23.1522 13.7598 20.5C13.7598 17.8478 14.8133 15.3043 16.6887 13.4289C18.5641 11.5536 21.1076 10.5 23.7598 10.5ZM23.7598 14.5C22.1685 14.5 20.6423 15.1321 19.5171 16.2574C18.3919 17.3826 17.7598 18.9087 17.7598 20.5C17.7598 22.0913 18.3919 23.6174 19.5171 24.7426C20.6423 25.8679 22.1685 26.5 23.7598 26.5C25.3511 26.5 26.8772 25.8679 28.0024 24.7426C29.1276 23.6174 29.7598 22.0913 29.7598 20.5C29.7598 18.9087 29.1276 17.3826 28.0024 16.2574C26.8772 15.1321 25.3511 14.5 23.7598 14.5Z" fill="#F7F7F7"/>
</g>
</svg>
