<svg width="21" height="20" viewBox="0 0 21 20" fill="none" xmlns="http://www.w3.org/2000/svg">
<g id="&#231;&#159;&#162;&#229;&#141;&#176;&#227;&#130;&#162;&#227;&#130;&#164;&#227;&#130;&#179;&#227;&#131;&#179;&#227;&#128;&#128;&#228;&#184;&#139;4 2" clip-path="url(#clip0_267_1476)">
<g id="Group">
<path id="Vector" opacity="0.984" fill-rule="evenodd" clip-rule="evenodd" d="M6.78906 0.0390625C6.84115 0.0390625 6.89323 0.0390625 6.94531 0.0390625C10.2509 3.37078 13.5583 6.70406 16.8672 10.0391C13.5583 13.374 10.2509 16.7074 6.94531 20.0391C6.89323 20.0391 6.84115 20.0391 6.78906 20.0391C5.87927 19.1032 4.96781 18.1657 4.05469 17.2266C6.42448 14.8307 8.7943 12.4349 11.1641 10.0391C8.7943 7.6432 6.42448 5.24742 4.05469 2.85156C4.96781 1.91242 5.87927 0.974922 6.78906 0.0390625Z" fill="#FEFFFE"/>
</g>
</g>
<defs>
<clipPath id="clip0_267_1476">
<rect width="20" height="20" fill="white" transform="matrix(0 -1 1 0 0.5 20)"/>
</clipPath>
</defs>
</svg>
