<svg width="41" height="41" viewBox="0 0 41 41" fill="none" xmlns="http://www.w3.org/2000/svg">
<g id="Icon">
<path id="Icon_2" d="M20.7617 0.5C9.76171 0.5 0.761719 9.51607 0.761719 20.6205C0.761719 30.6606 8.08171 38.994 17.6417 40.5V26.4438H12.5617V20.6205H17.6417V16.1827C17.6417 11.1426 20.6217 8.37149 25.2017 8.37149C27.3817 8.37149 29.6617 8.75301 29.6617 8.75301V13.7129H27.1417C24.6617 13.7129 23.8817 15.259 23.8817 16.8454V20.6205H29.4417L28.5417 26.4438H23.8817V40.5C28.5946 39.7527 32.8861 37.3384 35.9815 33.6929C39.077 30.0474 40.7724 25.4109 40.7617 20.6205C40.7617 9.51607 31.7617 0.5 20.7617 0.5Z" fill="#F7F7F7"/>
</g>
</svg>
