<svg width="42" height="41" viewBox="0 0 42 41" fill="none" xmlns="http://www.w3.org/2000/svg">
<g id="Icon">
<rect x="0.761719" y="0.875" width="40" height="39.8748" rx="8" transform="rotate(-0.359251 0.761719 0.875)" fill="#F7F7F7"/>
<path id="Icon_2" d="M32.4591 5.66092C33.3431 5.65538 34.1932 6.00015 34.8222 6.61938C35.4512 7.23861 35.8077 8.08159 35.8132 8.96286L35.9591 32.2227C35.9646 33.104 35.6187 33.9514 34.9975 34.5784C34.3763 35.2055 33.5307 35.5609 32.6466 35.5665L9.31375 35.7128C8.42971 35.7183 7.57969 35.3735 6.95067 34.7543C6.32166 34.1351 5.96517 33.2921 5.95965 32.4108L5.8138 9.15096C5.80828 8.26969 6.15416 7.42231 6.77536 6.79524C7.39656 6.16817 8.2422 5.81277 9.12624 5.80722L32.4591 5.66092ZM31.7873 31.4181L31.7321 22.6126C31.723 21.1761 31.142 19.8021 30.1167 18.7927C29.0914 17.7834 27.7058 17.2214 26.2649 17.2305C24.8482 17.2393 23.2037 18.1136 22.4118 19.4146L22.4003 17.5704L17.7503 17.5995L17.8375 31.5056L22.4874 31.4765L22.4361 23.2857C22.4281 22.0064 23.4548 20.9532 24.7381 20.9451C25.357 20.9413 25.952 21.1826 26.3923 21.6161C26.8326 22.0495 27.0821 22.6396 27.086 23.2565L27.1374 31.4473L31.7873 31.4181ZM12.3174 15.0251C13.06 15.0204 13.7704 14.7219 14.2922 14.1951C14.814 13.6684 15.1045 12.9566 15.0999 12.2163C15.0902 10.6712 13.8323 9.41637 12.2823 9.42609C11.5353 9.43077 10.8207 9.73108 10.2958 10.261C9.77092 10.7908 9.47865 11.5069 9.48332 12.2515C9.493 13.7967 10.7675 15.0348 12.3174 15.0251ZM14.7376 31.525L14.6504 17.619L10.0338 17.6479L10.121 31.554L14.7376 31.525Z" fill="#112E47"/>
</g>
</svg>
