<svg width="22" height="22" viewBox="0 0 22 22" fill="none" xmlns="http://www.w3.org/2000/svg">
<g id="User-Circle--Streamline-Micro">
<path id="Vector" d="M11.0002 11.4396C11.7573 11.4396 12.4834 11.1389 13.0188 10.6035C13.5541 10.0682 13.8549 9.34205 13.8549 8.58494C13.8549 7.82783 13.5541 7.10173 13.0188 6.56637C12.4834 6.03102 11.7573 5.73026 11.0002 5.73026C10.2431 5.73026 9.51698 6.03102 8.98163 6.56637C8.44627 7.10173 8.14551 7.82783 8.14551 8.58494C8.14551 9.34205 8.44627 10.0682 8.98163 10.6035C9.51698 11.1389 10.2431 11.4396 11.0002 11.4396Z" stroke="#F7F7F7" stroke-opacity="0.968627" stroke-width="1.5" stroke-linecap="round" stroke-linejoin="round"/>
<path id="Vector_2" d="M5.37207 17.4554C5.96035 16.4903 6.78697 15.6926 7.77249 15.1392C8.75801 14.5857 9.86931 14.295 10.9996 14.295C12.1299 14.295 13.2412 14.5857 14.2267 15.1392C15.2123 15.6926 16.0389 16.4903 16.6272 17.4554" stroke="#F7F7F7" stroke-opacity="0.968627" stroke-width="1.5" stroke-linecap="round" stroke-linejoin="round"/>
<path id="Vector_3" d="M10.9996 19.5641C12.1243 19.5641 13.2379 19.3426 14.2769 18.9122C15.316 18.4818 16.2601 17.851 17.0553 17.0557C17.8506 16.2605 18.4814 15.3164 18.9118 14.2773C19.3422 13.2383 19.5637 12.1247 19.5637 11C19.5637 9.87536 19.3422 8.76172 18.9118 7.72268C18.4814 6.68364 17.8506 5.73955 17.0553 4.9443C16.2601 4.14905 15.316 3.51823 14.2769 3.08784C13.2379 2.65746 12.1243 2.43594 10.9996 2.43594C8.72828 2.43594 6.54998 3.33823 4.9439 4.9443C3.33783 6.55037 2.43555 8.72868 2.43555 11C2.43555 13.2713 3.33783 15.4496 4.9439 17.0557C6.54998 18.6618 8.72828 19.5641 10.9996 19.5641Z" stroke="#F7F7F7" stroke-opacity="0.968627" stroke-width="1.5" stroke-linecap="round" stroke-linejoin="round"/>
</g>
</svg>
