<svg width="52" height="41" viewBox="0 0 52 41" fill="none" xmlns="http://www.w3.org/2000/svg">
<g id="Icon">
<path id="Icon_2" d="M21.7598 29.0714L34.7348 20.5L21.7598 11.9286V29.0714ZM50.6598 6.7C50.9848 8.04286 51.2098 9.84286 51.3598 12.1286C51.5348 14.4143 51.6098 16.3857 51.6098 18.1L51.7598 20.5C51.7598 26.7571 51.3598 31.3571 50.6598 34.3C50.0348 36.8714 48.5848 38.5286 46.3348 39.2429C45.1598 39.6143 43.0098 39.8714 39.7098 40.0429C36.4598 40.2429 33.4848 40.3286 30.7348 40.3286L26.7598 40.5C16.2848 40.5 9.75977 40.0429 7.18477 39.2429C4.93477 38.5286 3.48477 36.8714 2.85977 34.3C2.53477 32.9571 2.30977 31.1571 2.15977 28.8714C1.98477 26.5857 1.90977 24.6143 1.90977 22.9L1.75977 20.5C1.75977 14.2429 2.15977 9.64286 2.85977 6.7C3.48477 4.12857 4.93477 2.47143 7.18477 1.75714C8.35977 1.38571 10.5098 1.12857 13.8098 0.957142C17.0598 0.757142 20.0348 0.671428 22.7848 0.671428L26.7598 0.5C37.2348 0.5 43.7598 0.957143 46.3348 1.75714C48.5848 2.47143 50.0348 4.12857 50.6598 6.7Z" fill="#F7F7F7"/>
</g>
</svg>
