<svg width="18" height="18" viewBox="0 0 18 18" fill="none" xmlns="http://www.w3.org/2000/svg">
<path d="M16.6154 1.38462V5.53846M16.6154 1.38462H12.4615M16.6154 1.38462L11.0769 6.92308M13.8462 18C6.19937 18 0 11.8006 0 4.15385V2.07692C0 0.929835 0.929835 0 2.07692 0H3.34335C3.81973 0 4.23511 0.323984 4.35049 0.786429L5.3714 4.86923C5.47294 5.27538 5.32154 5.70181 4.98643 5.95203L3.79294 6.84742C3.44209 7.10135 3.29951 7.55538 3.44217 7.96434C4.56659 11.0229 6.97714 13.4334 10.0357 14.5578C10.4428 14.7074 10.8923 14.5541 11.1526 14.2071L12.048 13.0136C12.2986 12.679 12.7253 12.5273 13.1308 12.6286L17.2136 13.6495C17.6751 13.7649 18 14.1803 18 14.6566V15.9231C18 17.0701 17.0701 17.9999 15.9231 18H13.8462Z" stroke="black" stroke-width="1.5" stroke-linecap="round" stroke-linejoin="round"/>
</svg>
